<svg xmlns="http://www.w3.org/2000/svg" viewBox="0 0 264.53 379.16"><defs><style>.cls-1{fill:#10ae98;}</style></defs><g id="Layer_2" data-name="Layer 2"><g id="Layer_1-2" data-name="Layer 1"><path class="cls-1" d="M100.89,0l62.65,0c-9.79,18.3-21.14,35.71-31,55.18C121.61,36.2,111.25,18.11,100.89,0Z"/><path d="M0,378.42Q21.45,306.69,42.91,235q27.81-92.76,55.71-185.5c.76-2.54.51-6.34,4.11-6.67,3.19-.3,3.92,3.18,5.21,5.37,6.94,11.74,13.74,23.57,20.65,35.34,3.18,5.4,4,5.42,7.16.12C142.91,71.42,150,59.17,157.14,47c1.13-1.92,1.81-4.78,4.81-4.28,2.57.43,2.77,3.09,3.37,5.1Q191,133.13,216.53,218.48,239.39,294.76,262.28,371c.57,1.89,1.49,3.68,2.25,5.52v2c-4.89,1.11-9.85.39-14.77.45-10.75.14-21.5,0-32.24,0-4.14.12-5.06-3.07-6-6.06-4.53-14.79-9.25-29.52-13.7-44.34q-2-6.69-4.37-13.27a8.58,8.58,0,0,0-8.24-6.11c-2-.12-4-.14-6-.14q-47.16,0-94.3,0c-1.33,0-2.67,0-4,0-6.7.29-8.76,1.77-10.81,8.19-5.78,18.06-11.28,36.21-16.9,54.32-1,3.27-1.46,7.2-6.24,7.37-14.08,0-28.15,0-42.22,0C3.2,379,1.48,379.58,0,378.42ZM130,98.84q-21.28,75.94-42.53,151.92c-2,7.22-1.58,7.86,5.82,7.87q38.68,0,77.37,0c8.05,0,8.39-.46,6.18-8.35q-21.1-75.48-42.27-150.95c-.52-1.85-.53-4-2.48-5.5C130.65,95.27,130.45,97.14,130,98.84Z"/></g></g></svg>